<svg xmlns="http://www.w3.org/2000/svg" width="16.714" height="18" viewBox="0 0 16.714 18"><defs><style>.a{fill:#334aab;}</style></defs><g transform="translate(-18.276)"><path class="a" d="M34.608,2.953a1.235,1.235,0,0,0-.9-.382H32.419V1.607A1.548,1.548,0,0,0,31.947.472,1.548,1.548,0,0,0,30.812,0h-.643a1.547,1.547,0,0,0-1.135.472,1.547,1.547,0,0,0-.472,1.135v.964H24.7V1.607A1.548,1.548,0,0,0,24.233.472,1.547,1.547,0,0,0,23.1,0h-.643A1.548,1.548,0,0,0,21.32.472a1.548,1.548,0,0,0-.472,1.135v.964H19.562a1.236,1.236,0,0,0-.9.382,1.236,1.236,0,0,0-.382.9V16.714A1.3,1.3,0,0,0,19.562,18H33.7a1.3,1.3,0,0,0,1.286-1.286V3.857A1.236,1.236,0,0,0,34.608,2.953ZM29.848,1.607a.309.309,0,0,1,.321-.321h.643a.309.309,0,0,1,.321.321V4.5a.309.309,0,0,1-.321.321h-.643a.309.309,0,0,1-.321-.321Zm-7.714,0a.309.309,0,0,1,.321-.321H23.1a.309.309,0,0,1,.321.321V4.5a.309.309,0,0,1-.321.321h-.643a.309.309,0,0,1-.321-.321ZM33.7,16.714H19.562V6.429H33.7Z" transform="translate(0 0)"/></g></svg>