<svg xmlns="http://www.w3.org/2000/svg" width="28" height="28" viewBox="0 0 32 32"><defs><style>.a,.b{fill:#9398c7;}.a{opacity:0;}</style></defs><g transform="translate(0 0.113)"><rect class="a" width="32" height="32" transform="translate(0 -0.113)"/><path class="b" d="M15.01,22.567a1.72,1.72,0,1,1-1.72-1.72A1.72,1.72,0,0,1,15.01,22.567ZM9.819,4.82a16,16,0,0,1,3.523-.39A15.622,15.622,0,0,1,24.879,9.466,1.042,1.042,0,1,0,26.4,8.045a17.686,17.686,0,0,0-13.063-5.7,18.08,18.08,0,0,0-3.982.441A1.042,1.042,0,1,0,9.819,4.82Zm4.53,4.613a1.042,1.042,0,0,0,.84,1.211A11.114,11.114,0,0,1,21.1,13.818a1.042,1.042,0,1,0,1.48-1.469A13.19,13.19,0,0,0,15.56,8.592a1.042,1.042,0,0,0-1.211.84ZM26.379,24.9,1.779.3A1.042,1.042,0,0,0,.305,1.779L3.7,5.171A18.219,18.219,0,0,0,.28,8.045,1.042,1.042,0,0,0,1.8,9.466a16.074,16.074,0,0,1,3.4-2.784L8.08,9.554a13.712,13.712,0,0,0-3.973,2.8,1.042,1.042,0,0,0,1.48,1.468,11.3,11.3,0,0,1,4.086-2.671l3.347,3.347a7.582,7.582,0,0,0-4.838,2.173,1.042,1.042,0,0,0,1.467,1.481,5.443,5.443,0,0,1,3.606-1.575h.077a5.091,5.091,0,0,1,2.463.711l.031.016L24.9,26.379A1.042,1.042,0,0,0,26.379,24.9Zm0,0" transform="translate(2.668 2.668)"/></g></svg>