<svg xmlns="http://www.w3.org/2000/svg" width="40.5" height="36.735" viewBox="0 0 40.5 36.735"><defs><style>.a{fill:none;stroke:#334aab;stroke-linecap:round;stroke-linejoin:round;stroke-width:2px;}.b{fill:#f25d27;}.c{fill:#fff;font-size:8px;font-family:OpenSans-Bold, Open Sans;font-weight:700;}</style></defs><g transform="translate(-975.5 -2265.522)"><g transform="translate(976.5 2266.522)"><g transform="translate(0 0)"><path class="a" d="M1003.593,121.9c6.117-.208,10.436-1.2,12.919-2.714,3.295-2.006,1.962-4.5,1.449-5.137-5.316-6.64-4.561-11.009-5.315-15.437-1.12-6.573-9.054-6.556-9.054-6.556s-7.935-.017-9.055,6.556c-.754,4.429,0,8.8-5.315,15.437-.512.64-1.846,3.131,1.449,5.137C993.157,120.7,997.475,121.692,1003.593,121.9Z" transform="translate(-988.521 -90.05)"/><path class="a" d="M1006.976,119.529c0,1.642-1.888,2.973-4.215,2.973s-4.217-1.331-4.217-2.973" transform="translate(-987.688 -87.767)"/><path class="a" d="M1000.586,92.209a2,2,0,1,1,4.01,0" transform="translate(-987.518 -90.204)"/></g></g><g transform="translate(995.543 2266)"><circle class="b" cx="10" cy="10" r="10" transform="translate(0.457)"/><text class="c" transform="translate(8.17 12.878)"><tspan x="0" y="0">2</tspan></text></g></g></svg>