<svg xmlns="http://www.w3.org/2000/svg" width="25.715" height="22.501" viewBox="0 0 25.715 22.501"><defs><style>.a{fill:#334aab;}</style></defs><g transform="translate(0 -30.522)"><path class="a" d="M128.547,137.374a6.429,6.429,0,1,0,6.429,6.429A6.436,6.436,0,0,0,128.547,137.374Zm0,11.251a4.822,4.822,0,1,1,4.822-4.822A4.827,4.827,0,0,1,128.547,148.625Z" transform="translate(-115.689 -101.227)"/><path class="a" d="M25.706,36.143A2.414,2.414,0,0,0,23.3,33.735H19.774l-1.386-2.769a.8.8,0,0,0-.719-.444H8.026a.8.8,0,0,0-.719.444l-1.384,2.77-3.516,0A2.414,2.414,0,0,0,0,36.151V50.613a2.413,2.413,0,0,0,2.411,2.41H23.3a2.414,2.414,0,0,0,2.411-2.412ZM23.3,51.416H2.411a.8.8,0,0,1-.8-.8V36.151a.8.8,0,0,1,.8-.8l4.012-.005a.8.8,0,0,0,.718-.444l1.384-2.769h8.65L18.558,34.9a.8.8,0,0,0,.719.444H23.3a.812.812,0,0,1,.813.8V50.612A.805.805,0,0,1,23.3,51.416Z" transform="translate(0 0)"/></g></svg>