<svg xmlns="http://www.w3.org/2000/svg" xmlns:xlink="http://www.w3.org/1999/xlink" width="35" height="35" viewBox="0 0 35 35"><defs><style>.a{fill:url(#a);}</style><linearGradient id="a" x1="0.12" y1="0.5" x2="1.524" y2="0.5" gradientUnits="objectBoundingBox"><stop offset="0" stop-color="#fafafa"/><stop offset="1" stop-color="#334aab"/></linearGradient></defs><path class="a" d="M19.687,29.6a2.256,2.256,0,1,1-2.256-2.256A2.256,2.256,0,0,1,19.687,29.6ZM12.879,6.322A20.992,20.992,0,0,1,17.5,5.81a20.491,20.491,0,0,1,15.133,6.606,1.367,1.367,0,1,0,2-1.864A23.2,23.2,0,0,0,17.5,3.076a23.714,23.714,0,0,0-5.223.579,1.367,1.367,0,1,0,.6,2.667Zm5.941,6.05a1.367,1.367,0,0,0,1.1,1.589,14.578,14.578,0,0,1,7.749,4.164A1.367,1.367,0,1,0,29.613,16.2a17.3,17.3,0,0,0-9.2-4.928,1.367,1.367,0,0,0-1.589,1.1ZM34.6,32.666,2.334.4A1.367,1.367,0,0,0,.4,2.334L4.849,6.782a23.9,23.9,0,0,0-4.482,3.77,1.367,1.367,0,0,0,2,1.864A21.083,21.083,0,0,1,6.832,8.765L10.6,12.532A17.985,17.985,0,0,0,5.387,16.2a1.367,1.367,0,0,0,1.941,1.926,14.824,14.824,0,0,1,5.36-3.5l4.39,4.39a9.945,9.945,0,0,0-6.345,2.85A1.367,1.367,0,0,0,12.657,23.8a7.14,7.14,0,0,1,4.73-2.065h.1a6.678,6.678,0,0,1,3.23.933l.041.021L32.666,34.6A1.367,1.367,0,0,0,34.6,32.666Zm0,0" transform="translate(0 0)"/></svg>